<svg width="1024" height="1024" viewBox="0 0 1024 1024" fill="none" xmlns="http://www.w3.org/2000/svg">
<g clip-path="url(#clip0_1_2)">
<rect width="1024" height="1024" rx="186" fill="black"/>
<rect x="0.5" y="0.5" width="1023" height="1023" rx="185.5" stroke="white" stroke-opacity="0.2"/>
<g filter="url(#filter0_f_1_2)">
<path d="M513 595L766.745 1022.5H259.255L513 595Z" fill="#D9D9D9" fill-opacity="0.3"/>
</g>
<g filter="url(#filter1_f_1_2)">
<path d="M513 428L259.255 0.500048L766.745 0.500003L513 428Z" fill="#D9D9D9" fill-opacity="0.3"/>
</g>
<line x1="97.5" y1="3" x2="97.5" y2="1021" stroke="white" stroke-opacity="0.1"/>
<line x1="201.5" y1="3" x2="201.5" y2="1021" stroke="white" stroke-opacity="0.1"/>
<line x1="305.5" y1="3" x2="305.5" y2="1021" stroke="white" stroke-opacity="0.1"/>
<line x1="409.5" y1="3" x2="409.5" y2="1021" stroke="white" stroke-opacity="0.1"/>
<line x1="513.5" y1="3" x2="513.5" y2="1021" stroke="white" stroke-opacity="0.1"/>
<line x1="617.5" y1="3" x2="617.5" y2="1021" stroke="white" stroke-opacity="0.1"/>
<line x1="721.5" y1="3" x2="721.5" y2="1021" stroke="white" stroke-opacity="0.1"/>
<line x1="825.5" y1="3" x2="825.5" y2="1021" stroke="white" stroke-opacity="0.1"/>
<line x1="929.5" y1="3" x2="929.5" y2="1021" stroke="white" stroke-opacity="0.1"/>
<line x1="1022" y1="96.5" x2="4.00006" y2="96.5" stroke="white" stroke-opacity="0.1"/>
<line x1="1022" y1="200.5" x2="4.00006" y2="200.5" stroke="white" stroke-opacity="0.1"/>
<line x1="1022" y1="304.5" x2="4.00006" y2="304.5" stroke="white" stroke-opacity="0.1"/>
<line x1="1022" y1="408.5" x2="4" y2="408.5" stroke="white" stroke-opacity="0.1"/>
<line x1="1022" y1="512.5" x2="4" y2="512.5" stroke="white" stroke-opacity="0.1"/>
<line x1="1022" y1="616.5" x2="4" y2="616.5" stroke="white" stroke-opacity="0.1"/>
<line x1="1022" y1="720.5" x2="4" y2="720.5" stroke="white" stroke-opacity="0.1"/>
<line x1="1022" y1="824.5" x2="4" y2="824.5" stroke="white" stroke-opacity="0.1"/>
<line x1="1022" y1="928.5" x2="4" y2="928.5" stroke="white" stroke-opacity="0.1"/>
<path d="M178.578 739.548C178.859 739.726 179.141 739.905 179.422 740.084C195.205 719.075 210.558 698.977 225.935 679.275C264.355 630.679 302.476 580.651 346.733 543.041C352.244 538.623 357.825 534.639 363.252 531.781C368.199 528.916 373.942 528.285 372.799 528.78C372.582 528.803 372.1 528.668 371.842 528.55C371.566 528.432 371.532 528.412 371.681 528.696C372.011 529.26 372.849 531.089 373.43 533.431C374.696 538.321 375.232 544.818 375.258 551.595C375.077 579.118 369.127 609.233 362.208 638.154C361.065 642.965 360.327 646.362 359.622 651.374C359.26 654.074 359.031 656.653 359 659.298C358.979 660.967 359.061 663.273 359.389 665.481C359.555 666.614 359.785 667.8 360.123 669.061C360.297 669.704 360.475 670.299 360.735 671.048C361.114 672.133 361.588 673.272 362.2 674.456C364.423 679.142 370.228 684.924 377.2 686.559C383.79 688.373 390.255 686.421 392.041 685.73C396.953 683.951 400.498 681.267 402.311 679.907C406.984 676.257 409.737 673.42 412.992 670.028C494.066 570.886 550.619 462.48 617.693 364.384C618.625 363.146 619.324 362.344 619.541 362.099C619.685 361.923 619.633 362.056 618.69 362.671C618.452 362.821 618.156 362.997 617.78 363.193C617.592 363.291 617.385 363.393 617.154 363.498C616.819 363.653 616.277 363.88 615.708 364.069C613.515 364.853 609.064 365.498 604.647 363.685C595.938 359.651 595.634 353.933 595.297 353.419C595.094 352.507 595.146 352.34 595.161 352.545C595.21 353.03 595.223 354.023 595.137 355.496C594.846 360.639 593.776 367.8 592.798 374.017C590.682 387.212 588.223 400.679 585.916 414.272C581.279 441.478 577.092 468.889 574.734 496.857C572.503 524.791 571.546 553.316 576.656 582.354C581.004 609.863 597.22 646.635 632.1 653.952C733.474 672.142 812.092 581.571 825.935 495.19C829.471 469.464 825.776 442.388 812.944 420.085C812.648 420.239 812.352 420.393 812.056 420.546C823 443.569 824.453 469.786 819.343 494.076C801.033 576.344 717.103 652.501 637.9 631.679C594.581 617.681 599.586 549.519 605.084 499.991C608.373 473.508 613.377 447.122 618.847 420.448C621.576 407.079 624.444 393.82 627.091 380.016C628.334 373.371 629.724 366.081 630.461 358.118C630.654 355.62 630.792 353.919 630.684 350.733C630.599 348.981 630.439 347.149 629.901 344.881C629.173 342.655 627.945 335.021 617.895 330.519C612.758 328.419 607.464 329.077 604.294 330.191C603.489 330.458 602.662 330.802 602.114 331.057C601.741 331.228 601.387 331.403 601.051 331.579C600.379 331.932 599.775 332.289 599.22 332.645C597.065 334.026 595.327 335.625 594.22 336.712C592.461 338.438 590.913 340.23 589.307 342.248C516.427 443.04 456.561 552.109 383.208 641.852C382.029 643.098 380.955 644.177 380.023 645.064C379.787 645.288 379.576 645.486 379.343 645.7C379.066 645.955 378.805 646.189 378.563 646.401C378.079 646.824 377.67 647.159 377.366 647.394C377.07 647.625 376.844 647.778 376.813 647.799C376.822 647.802 377.157 647.567 378.167 647.198C378.71 647.017 382.39 645.621 387.474 646.933C392.758 648.125 397.269 652.794 398.529 655.63C398.902 656.352 399.158 656.985 399.344 657.516C399.47 657.881 399.547 658.144 399.616 658.403C399.75 658.908 399.811 659.266 399.844 659.5C399.906 659.975 399.868 659.906 399.869 659.604C399.862 659.149 399.909 658.115 400.09 656.668C400.446 653.891 400.931 651.291 401.792 647.478C408.664 616.263 414.344 584.922 413.115 550.455C412.616 541.676 411.776 532.932 408.583 522.776C405.691 513.638 398.188 497.894 380.332 494.179C363.927 491.542 353.983 498.047 346.217 502.455C338.023 507.576 331.656 513.055 325.521 518.764C278.836 565.291 247.664 618.323 215.613 672.321C203.058 694.09 190.873 716.316 178.578 739.548Z" fill="#8E8E8E"/>
</g>
<defs>
<filter id="filter0_f_1_2" x="-248.745" y="87" width="1523.49" height="1443.5" filterUnits="userSpaceOnUse" color-interpolation-filters="sRGB">
<feFlood flood-opacity="0" result="BackgroundImageFix"/>
<feBlend mode="normal" in="SourceGraphic" in2="BackgroundImageFix" result="shape"/>
<feGaussianBlur stdDeviation="254" result="effect1_foregroundBlur_1_2"/>
</filter>
<filter id="filter1_f_1_2" x="-248.745" y="-507.5" width="1523.49" height="1443.5" filterUnits="userSpaceOnUse" color-interpolation-filters="sRGB">
<feFlood flood-opacity="0" result="BackgroundImageFix"/>
<feBlend mode="normal" in="SourceGraphic" in2="BackgroundImageFix" result="shape"/>
<feGaussianBlur stdDeviation="254" result="effect1_foregroundBlur_1_2"/>
</filter>
<clipPath id="clip0_1_2">
<rect width="1024" height="1024" rx="186" fill="white"/>
</clipPath>
</defs>
</svg>
