<svg width="1024" height="1024" viewBox="0 0 1024 1024" fill="none" xmlns="http://www.w3.org/2000/svg">
<g clip-path="url(#clip0_1_2)">
<rect width="1024" height="1024" rx="186" fill="black"/>
<rect x="0.5" y="0.5" width="1023" height="1023" rx="185.5" stroke="white" stroke-opacity="0.2"/>
<g filter="url(#filter0_f_1_2)">
<path d="M513 595L766.745 1022.5H259.255L513 595Z" fill="#D9D9D9" fill-opacity="0.3"/>
</g>
<g filter="url(#filter1_f_1_2)">
<path d="M513 428L259.255 0.500048L766.745 0.500003L513 428Z" fill="#D9D9D9" fill-opacity="0.3"/>
</g>
<line x1="97.5" y1="3" x2="97.5" y2="1021" stroke="white" stroke-opacity="0.1"/>
<line x1="201.5" y1="3" x2="201.5" y2="1021" stroke="white" stroke-opacity="0.1"/>
<line x1="305.5" y1="3" x2="305.5" y2="1021" stroke="white" stroke-opacity="0.1"/>
<line x1="409.5" y1="3" x2="409.5" y2="1021" stroke="white" stroke-opacity="0.1"/>
<line x1="513.5" y1="3" x2="513.5" y2="1021" stroke="white" stroke-opacity="0.1"/>
<line x1="617.5" y1="3" x2="617.5" y2="1021" stroke="white" stroke-opacity="0.1"/>
<line x1="721.5" y1="3" x2="721.5" y2="1021" stroke="white" stroke-opacity="0.1"/>
<line x1="825.5" y1="3" x2="825.5" y2="1021" stroke="white" stroke-opacity="0.1"/>
<line x1="929.5" y1="3" x2="929.5" y2="1021" stroke="white" stroke-opacity="0.1"/>
<line x1="1022" y1="96.5" x2="4.00006" y2="96.5" stroke="white" stroke-opacity="0.1"/>
<line x1="1022" y1="200.5" x2="4.00006" y2="200.5" stroke="white" stroke-opacity="0.1"/>
<line x1="1022" y1="304.5" x2="4.00006" y2="304.5" stroke="white" stroke-opacity="0.1"/>
<line x1="1022" y1="408.5" x2="4" y2="408.5" stroke="white" stroke-opacity="0.1"/>
<line x1="1022" y1="512.5" x2="4" y2="512.5" stroke="white" stroke-opacity="0.1"/>
<line x1="1022" y1="616.5" x2="4" y2="616.5" stroke="white" stroke-opacity="0.1"/>
<line x1="1022" y1="720.5" x2="4" y2="720.5" stroke="white" stroke-opacity="0.1"/>
<line x1="1022" y1="824.5" x2="4" y2="824.5" stroke="white" stroke-opacity="0.1"/>
<line x1="1022" y1="928.5" x2="4" y2="928.5" stroke="white" stroke-opacity="0.1"/>
<path d="M189.578 708.548C189.859 708.726 190.141 708.905 190.422 709.084C206.205 688.075 221.558 667.977 236.935 648.275C275.355 599.679 313.476 549.651 357.733 512.041C363.244 507.623 368.825 503.639 374.252 500.781C379.199 497.916 384.942 497.285 383.799 497.78C383.582 497.803 383.1 497.668 382.842 497.55C382.566 497.432 382.532 497.412 382.681 497.696C383.011 498.26 383.849 500.089 384.43 502.431C385.696 507.321 386.232 513.818 386.258 520.595C386.077 548.118 380.127 578.233 373.208 607.154C372.065 611.965 371.327 615.362 370.622 620.374C370.26 623.074 370.031 625.653 370 628.298C369.979 629.967 370.061 632.273 370.389 634.481C370.555 635.614 370.785 636.8 371.123 638.061C371.297 638.704 371.475 639.299 371.735 640.048C372.114 641.133 372.588 642.272 373.2 643.456C375.423 648.142 381.228 653.924 388.2 655.559C394.79 657.373 401.255 655.421 403.041 654.73C407.953 652.951 411.498 650.267 413.311 648.907C417.984 645.257 420.737 642.42 423.992 639.028C505.066 539.886 561.619 431.48 628.693 333.384C629.625 332.146 630.324 331.344 630.541 331.099C630.685 330.923 630.633 331.056 629.69 331.671C629.452 331.821 629.156 331.997 628.78 332.193C628.592 332.291 628.385 332.393 628.154 332.498C627.819 332.653 627.277 332.88 626.708 333.069C624.515 333.853 620.064 334.498 615.647 332.685C606.938 328.651 606.634 322.933 606.297 322.419C606.094 321.507 606.146 321.34 606.161 321.545C606.21 322.03 606.223 323.023 606.137 324.496C605.846 329.639 604.776 336.8 603.798 343.017C601.682 356.212 599.223 369.679 596.916 383.272C592.279 410.478 588.092 437.889 585.734 465.857C583.503 493.791 582.546 522.316 587.656 551.354C592.004 578.863 608.22 615.635 643.1 622.952C744.474 641.142 823.092 550.571 836.935 464.19C840.471 438.464 836.776 411.388 823.944 389.085C823.648 389.239 823.352 389.393 823.056 389.546C834 412.569 835.453 438.786 830.343 463.076C812.033 545.344 728.103 621.501 648.9 600.679C605.581 586.681 610.586 518.519 616.084 468.991C619.373 442.508 624.377 416.122 629.847 389.448C632.576 376.079 635.444 362.82 638.091 349.016C639.334 342.371 640.724 335.081 641.461 327.118C641.654 324.62 641.792 322.919 641.684 319.733C641.599 317.981 641.439 316.149 640.901 313.881C640.173 311.655 638.945 304.021 628.895 299.519C623.758 297.419 618.464 298.077 615.294 299.191C614.489 299.458 613.662 299.802 613.114 300.057C612.741 300.228 612.387 300.403 612.051 300.579C611.379 300.932 610.775 301.289 610.22 301.645C608.065 303.026 606.327 304.625 605.22 305.712C603.461 307.438 601.913 309.23 600.307 311.248C527.427 412.04 467.561 521.109 394.208 610.852C393.029 612.098 391.955 613.177 391.023 614.064C390.787 614.288 390.576 614.486 390.343 614.7C390.066 614.955 389.805 615.189 389.563 615.401C389.079 615.824 388.67 616.159 388.366 616.394C388.07 616.625 387.844 616.778 387.813 616.799C387.822 616.802 388.157 616.567 389.167 616.198C389.71 616.017 393.39 614.621 398.474 615.933C403.758 617.125 408.269 621.794 409.529 624.63C409.902 625.352 410.158 625.985 410.344 626.516C410.47 626.881 410.547 627.144 410.616 627.403C410.75 627.908 410.811 628.266 410.844 628.5C410.906 628.975 410.868 628.906 410.869 628.604C410.862 628.149 410.909 627.115 411.09 625.668C411.446 622.891 411.931 620.291 412.792 616.478C419.664 585.263 425.344 553.922 424.115 519.455C423.616 510.676 422.776 501.932 419.583 491.776C416.691 482.638 409.188 466.894 391.332 463.179C374.927 460.542 364.983 467.047 357.217 471.455C349.023 476.576 342.656 482.055 336.521 487.764C289.836 534.291 258.664 587.323 226.613 641.321C214.058 663.09 201.873 685.316 189.578 708.548Z" fill="#8E8E8E"/>
</g>
<defs>
<filter id="filter0_f_1_2" x="-248.745" y="87" width="1523.49" height="1443.5" filterUnits="userSpaceOnUse" color-interpolation-filters="sRGB">
<feFlood flood-opacity="0" result="BackgroundImageFix"/>
<feBlend mode="normal" in="SourceGraphic" in2="BackgroundImageFix" result="shape"/>
<feGaussianBlur stdDeviation="254" result="effect1_foregroundBlur_1_2"/>
</filter>
<filter id="filter1_f_1_2" x="-248.745" y="-507.5" width="1523.49" height="1443.5" filterUnits="userSpaceOnUse" color-interpolation-filters="sRGB">
<feFlood flood-opacity="0" result="BackgroundImageFix"/>
<feBlend mode="normal" in="SourceGraphic" in2="BackgroundImageFix" result="shape"/>
<feGaussianBlur stdDeviation="254" result="effect1_foregroundBlur_1_2"/>
</filter>
<clipPath id="clip0_1_2">
<rect width="1024" height="1024" rx="186" fill="white"/>
</clipPath>
</defs>
</svg>
